<?xml version="1.0" encoding="utf-8"?>
<!-- Svg Vector Icons : http://www.onlinewebfonts.com/icon -->
<!DOCTYPE svg PUBLIC "-//W3C//DTD SVG 1.1//EN" "http://www.w3.org/Graphics/SVG/1.1/DTD/svg11.dtd">
<svg version="1.1" xmlns="http://www.w3.org/2000/svg" xmlns:xlink="http://www.w3.org/1999/xlink" x="0px" y="0px" viewBox="0 0 1000 1000" enable-background="new 0 0 1000 1000" xml:space="preserve">
<metadata> Svg Vector Icons : http://www.onlinewebfonts.com/icon </metadata>
<g><g transform="translate(0.000000,511.000000) scale(0.100000,-0.100000)"><path d="M4851.2,4982c-96.7-42.5-195.8-162.8-212.3-257.2c-7.1-42.5-11.8-448.3-7.1-906c7.1-795.1,9.4-832.8,56.6-894.1c92-125,167.5-162.8,316.1-162.8s224.1,37.7,316.1,162.8c47.2,63.7,49.5,92,49.5,957.9s-2.4,894.1-49.5,957.9c-26,35.4-75.5,87.3-108.5,110.9C5134.3,5010.3,4945.6,5026.8,4851.2,4982z"/><path d="M1637.9,3644.3c-106.2-51.9-186.4-158.1-210-276c-33-160.4,14.2-224.1,625.2-837.5c318.5-323.2,608.7-601.6,644.1-620.5c35.4-18.9,115.6-33,176.9-33c212.3,0,361,148.6,361,361c0,61.3-14.2,141.6-33,176.9c-18.9,35.4-292.5,320.9-608.7,634.6C1916.3,3724.5,1864.4,3757.6,1637.9,3644.3z"/><path d="M8071.6,3656.1c-92-37.8-1207.9-1134.8-1264.5-1241c-18.9-35.4-33-115.6-33-176.9c0-212.3,148.6-361,361-361c61.4,0,141.6,14.2,176.9,33c35.4,18.9,325.6,297.3,644.1,620.5c611.1,613.4,658.2,677.1,625.2,837.5c-23.6,120.3-103.8,224.1-212.3,276C8250.9,3703.3,8184.8,3705.7,8071.6,3656.1z"/><path d="M4610.6,2339.7c-481.3-92-863.5-294.9-1210.3-648.8C3096,1384.2,2900.1,1035,2794,612.7c-56.6-224.1-56.6-785.6,0-1009.7c108.5-429.4,302-773.8,615.8-1090c316.1-313.8,660.6-507.2,1090-615.8c224.1-56.6,785.6-56.6,1009.8,0c429.4,108.5,773.8,302,1090,615.8c313.8,316.1,507.2,660.6,615.8,1090c56.6,224.1,56.6,785.6,0,1009.7c-106.2,422.3-302,771.5-606.3,1078.2c-306.7,313.8-637,504.9-1059.3,613.4C5316,2368,4846.5,2384.5,4610.6,2339.7z"/><path d="M321.5,452.3c-158.1-68.4-247.7-250.1-214.7-427C128-85.6,246-215.4,352.2-246.1c56.6-16.5,377.5-23.6,929.5-18.9c806.9,7.1,844.6,9.4,905.9,56.6c125,92,162.8,167.5,162.8,316.1c0,148.6-37.7,224.1-162.8,316.1c-61.3,47.2-96.7,49.5-929.5,54.3C573.9,482.9,378.1,478.2,321.5,452.3z"/><path d="M7871.1,452.3c-158.1-68.4-247.7-250.1-214.7-427c21.2-110.9,139.2-240.7,245.4-271.3c56.6-16.5,377.5-23.6,929.5-18.9c806.9,7.1,844.6,9.4,905.9,56.6c125.1,92,162.8,167.5,162.8,316.1c0,148.6-37.7,224.1-162.8,316.1c-61.3,47.2-96.7,49.5-929.5,54.3C8123.5,482.9,7927.7,478.2,7871.1,452.3z"/><path d="M2680.7-1706.4c-37.7-23.6-332.7-309.1-653.5-629.9c-559.1-566.2-580.4-592.2-596.9-698.3c-30.7-200.5,108.5-394,313.8-434.1c160.4-33,224.1,14.2,837.5,625.2c323.2,318.5,601.6,608.7,620.5,644.1c49.5,92,42.5,276-14.2,368C3088.9-1668.7,2838.8-1607.3,2680.7-1706.4z"/><path d="M6943.9-1708.8c-42.5-26-96.7-80.2-122.7-122.7c-56.6-92-63.7-276-14.2-368c18.9-35.4,297.3-325.6,620.5-646.4c488.4-486,601.6-585.1,686.5-611c269-77.9,533.2,186.4,455.3,457.7c-25.9,82.6-125,195.8-611,684.2c-320.9,323.2-611,601.6-646.4,620.5C7219.9-1645.1,7035.9-1652.2,6943.9-1708.8z"/><path d="M4851.2-2567.5c-96.7-42.5-195.8-162.8-212.3-257.1c-7.1-42.5-11.8-448.3-7.1-906c7.1-795.1,9.4-832.8,56.6-894.1c92-125.1,167.5-162.8,316.1-162.8s224.1,37.7,316.1,162.8c47.2,63.7,49.5,92,49.5,957.8c0,865.8-2.4,894.1-49.5,957.8c-26,35.4-75.5,87.3-108.5,110.9C5134.3-2539.2,4945.6-2522.7,4851.2-2567.5z"/></g></g>
</svg>